<?xml version="1.0" encoding="utf-8"?>
<!-- Generator: Adobe Illustrator 28.0.0, SVG Export Plug-In . SVG Version: 6.00 Build 0)  -->
<svg version="1.1" id="Glyph" xmlns="http://www.w3.org/2000/svg" xmlns:xlink="http://www.w3.org/1999/xlink" x="0px" y="0px"
	 viewBox="0 0 48 48" enable-background="new 0 0 48 48" xml:space="preserve">
<g>
	<path d="M42.89001,9.54999l-2-4c-0.34003-0.66998-1.44-0.66998-1.78003,0l-2,4C37.03998,9.69,37,9.83997,37,10v14h6V10
		C43,9.83997,42.96002,9.69,42.89001,9.54999z"/>
	<path d="M37,28c0,1.64996,1.34998,3,3,3s3-1.35004,3-3v-2h-6V28z"/>
	<polygon points="11,28 20.23389,28 11,12.61035 	"/>
	<path d="M35,33V6c0-0.55231-0.44769-1-1-1H6C5.44769,5,5,5.44769,5,6v33c0,2.20911,1.79083,4,4,4s4-1.79089,4-4v-5
		c0-0.55231,0.44769-1,1-1H35z M16,8h14c0.55273,0,1,0.44775,1,1v9c0,0.55225-0.44727,1-1,1h-5v2h5c0.55273,0,1,0.44775,1,1v7
		c0,0.55225-0.44727,1-1,1h-4c-0.55273,0-1-0.44775-1-1s0.44727-1,1-1h3v-5h-5c-0.55225,0-1-0.44775-1-1v-4c0-0.55225,0.44775-1,1-1
		h5v-7h-8v5c0,0.55225-0.44775,1-1,1s-1-0.44775-1-1v-5h-3c-0.55225,0-1-0.44775-1-1S15.44775,8,16,8z M10,30
		c-0.55225,0-1-0.44775-1-1C9,29,9,9.05695,9,9.00012c0-0.99347,1.3479-1.36475,1.85742-0.51477
		c0,0,11.9704,19.95062,11.99994,19.99988c0.19153,0.31921,0.17139,0.70148,0.00385,1.00214C22.69641,29.7832,22.38892,30,22,30H10z
		"/>
	<path d="M15,39c0,1.53998-0.58002,2.94-1.53998,4H35c2.76001,0,5-2.23999,5-5v-3H15V39z"/>
</g>
</svg>
