<?xml version="1.0" encoding="utf-8"?>
<!-- Generator: Adobe Illustrator 28.0.0, SVG Export Plug-In . SVG Version: 6.00 Build 0)  -->
<svg version="1.1" id="Glyph" xmlns="http://www.w3.org/2000/svg" xmlns:xlink="http://www.w3.org/1999/xlink" x="0px" y="0px"
	 viewBox="0 0 48 48" enable-background="new 0 0 48 48" xml:space="preserve">
<g>
	<path d="M13,27c0-0.37,0.02002-0.73999,0.07001-1.10004C12.72998,25.96997,12.37,26,12,26c-1.88,0-3.54999-0.85999-4.65997-2.21002
		C5.90997,25.06,5,26.92999,5,29v6c0,0.54999,0.45001,1,1,1h7.17999C13.06,35.69,13,35.34998,13,35V27z"/>
	<path d="M40.65997,23.78998C39.54999,25.14001,37.88,26,36,26c-0.37,0-0.72998-0.03003-1.07001-0.10004
		C34.97998,26.26001,35,26.63,35,27v8c0,0.34998-0.06,0.69-0.17999,1H42c0.54999,0,1-0.45001,1-1v-6
		C43,26.92999,42.09003,25.06,40.65997,23.78998z"/>
	<circle cx="12" cy="20" r="4"/>
	<circle cx="36" cy="20" r="4"/>
	<circle cx="24" cy="17" r="5"/>
	<polygon points="23.08545,27.67139 24,28.58594 24.91455,27.67139 24.18018,24 23.81982,24 	"/>
	<path d="M30.15997,21.38c-0.14996-0.12-0.29999-0.23004-0.45996-0.32001c-0.86371,1.21051-2.10718,2.12292-3.55029,2.59009
		l0.83075,4.15363c0.06592,0.32812-0.03711,0.66699-0.27344,0.90332l-2,2C24.51172,30.90234,24.25586,31,24,31
		s-0.51172-0.09766-0.70703-0.29297l-2-2c-0.23633-0.23633-0.33936-0.5752-0.27344-0.90332l0.83075-4.15363
		c-1.44312-0.46716-2.68658-1.37958-3.55029-2.59009c-0.15997,0.08997-0.31,0.20001-0.45996,0.32001
		c-1.21002,0.88995-2.12006,2.15997-2.55005,3.63995C15.09998,25.64996,15,26.31,15,27v8c0,0.54999,0.45001,1,1,1h16
		c0.54999,0,1-0.45001,1-1v-8c0-0.69-0.09998-1.35004-0.28998-1.98004C32.28003,23.53998,31.37,22.26996,30.15997,21.38z"/>
</g>
</svg>
