<?xml version="1.0" encoding="utf-8"?>
<!-- Generator: Adobe Illustrator 28.0.0, SVG Export Plug-In . SVG Version: 6.00 Build 0)  -->
<svg version="1.1" id="Glyph" xmlns="http://www.w3.org/2000/svg" xmlns:xlink="http://www.w3.org/1999/xlink" x="0px" y="0px"
	 viewBox="0 0 48 48" enable-background="new 0 0 48 48" xml:space="preserve">
<g>
	<path d="M5,6v36c0,0.55273,0.44775,1,1,1h17V5H6C5.44775,5,5,5.44775,5,6z M10.29297,12.29297
		c0.39062-0.39062,1.02344-0.39062,1.41406,0L13,13.58594l3.29297-3.29297c0.39062-0.39062,1.02344-0.39062,1.41406,0
		s0.39062,1.02344,0,1.41406c0,0-3.99219,3.99219-4,4c-0.38727,0.38727-1.0293,0.38477-1.41406,0l-2-2
		C9.90234,13.31641,9.90234,12.68359,10.29297,12.29297z M9,20h10c0.55225,0,1,0.44775,1,1s-0.44775,1-1,1H9
		c-0.55225,0-1-0.44775-1-1S8.44775,20,9,20z M9,24h10c0.55225,0,1,0.44775,1,1c0,0.55273-0.44775,1-1,1H9c-0.55225,0-1-0.44727-1-1
		C8,24.44775,8.44775,24,9,24z M9,28h10c0.55225,0,1,0.44727,1,1s-0.44775,1-1,1H9c-0.55225,0-1-0.44727-1-1S8.44775,28,9,28z M9,32
		h10c0.55225,0,1,0.44727,1,1s-0.44775,1-1,1H9c-0.55225,0-1-0.44727-1-1S8.44775,32,9,32z M9,36h10c0.55225,0,1,0.44727,1,1
		s-0.44775,1-1,1H9c-0.55225,0-1-0.44727-1-1S8.44775,36,9,36z"/>
	<path d="M42,5H25v38h17c0.55225,0,1-0.44727,1-1V6C43,5.44775,42.55225,5,42,5z M31.17188,11.58594
		c-0.39062-0.39062-0.39062-1.02344,0-1.41406s1.02344-0.39062,1.41406,0L34,11.58594l1.41406-1.41406
		c0.39062-0.39062,1.02344-0.39062,1.41406,0s0.39062,1.02344,0,1.41406L35.41406,13l1.41406,1.41406
		c0.39062,0.39056,0.39062,1.02332,0.00006,1.414c-0.38855,0.38861-1.02563,0.38855-1.41412,0.00006L34,14.41406
		c0,0-1.41278,1.41272-1.41406,1.41406c-0.38861,0.38855-1.02722,0.38678-1.41406,0c-0.39062-0.39062-0.39062-1.02344,0-1.41406
		L32.58594,13L31.17188,11.58594z M39,38H29c-0.55225,0-1-0.44727-1-1s0.44775-1,1-1h10c0.55225,0,1,0.44727,1,1S39.55225,38,39,38z
		 M39,34H29c-0.55225,0-1-0.44727-1-1s0.44775-1,1-1h10c0.55225,0,1,0.44727,1,1S39.55225,34,39,34z M39,30H29
		c-0.55225,0-1-0.44727-1-1s0.44775-1,1-1h10c0.55225,0,1,0.44727,1,1S39.55225,30,39,30z M39,26H29c-0.55225,0-1-0.44727-1-1
		c0-0.55225,0.44775-1,1-1h10c0.55225,0,1,0.44775,1,1C40,25.55273,39.55225,26,39,26z M39,22H29c-0.55225,0-1-0.44775-1-1
		s0.44775-1,1-1h10c0.55225,0,1,0.44775,1,1S39.55225,22,39,22z"/>
</g>
</svg>
