<?xml version="1.0" encoding="utf-8"?>
<!-- Generator: Adobe Illustrator 28.0.0, SVG Export Plug-In . SVG Version: 6.00 Build 0)  -->
<svg version="1.1" id="Glyph" xmlns="http://www.w3.org/2000/svg" xmlns:xlink="http://www.w3.org/1999/xlink" x="0px" y="0px"
	 viewBox="0 0 48 48" enable-background="new 0 0 48 48" xml:space="preserve">
<g>
	<path d="M15.6333,9.5083c0.27236,0.47369,0.89287,0.63955,1.36523,0.36816c0.47852-0.2749,0.64355-0.88623,0.36816-1.36523
		l-0.5-0.86963c-0.2749-0.479-0.88574-0.64404-1.36523-0.36816c-0.47852,0.2749-0.64355,0.88623-0.36816,1.36523
		C15.1333,8.63867,15.63259,9.50707,15.6333,9.5083z"/>
	<path d="M9.6416,14.8667c0,0,0.86719,0.4986,0.86962,0.5c0.45616,0.26227,1.09187,0.10842,1.36524-0.36816
		c0.27539-0.479,0.11035-1.09033-0.36816-1.36523l-0.86963-0.5c-0.47803-0.2749-1.09033-0.11035-1.36523,0.36816
		C8.99805,13.98047,9.16309,14.5918,9.6416,14.8667z"/>
	<path d="M10,22c0-0.55225-0.44775-1-1-1H8c-0.55225,0-1,0.44775-1,1s0.44775,1,1,1h1C9.55225,23,10,22.55225,10,22z"/>
	<path d="M10.51123,28.6333l-0.86963,0.5c-0.4785,0.27489-0.64354,0.88619-0.36819,1.36519
		c0.26423,0.45965,0.8872,0.64287,1.36526,0.36821l0.86963-0.5c0.47852-0.2749,0.64355-0.88623,0.36816-1.36523
		C11.60205,28.52197,10.99072,28.35791,10.51123,28.6333z"/>
	<path d="M38.3584,29.1333l-0.86963-0.5c-0.47852-0.2749-1.09082-0.11035-1.36523,0.36816
		c-0.27539,0.479-0.11035,1.09033,0.36816,1.36523c0,0,0.86927,0.49979,0.86963,0.5
		c0.45827,0.26348,1.08862,0.11409,1.36523-0.36816C39.00195,30.01953,38.83691,29.4082,38.3584,29.1333z"/>
	<path d="M40,21h-1c-0.55225,0-1,0.44775-1,1s0.44775,1,1,1h1c0.55225,0,1-0.44775,1-1S40.55225,21,40,21z"/>
	<path d="M36.9912,15.4967c0.17025,0.00109,0.3421-0.04068,0.49757-0.13l0.86963-0.5
		c0.47852-0.2749,0.64355-0.88623,0.36816-1.36523c-0.2749-0.47852-0.88623-0.64404-1.36523-0.36816l-0.86963,0.5
		c-0.4785,0.27489-0.64354,0.88619-0.36819,1.36518C36.30559,15.31524,36.64512,15.49449,36.9912,15.4967z"/>
	<path d="M31.00146,9.87646c0.45723,0.26267,1.09171,0.10868,1.36523-0.36816l0.5-0.86963
		c0.27539-0.479,0.11035-1.09033-0.36816-1.36523c-0.479-0.27539-1.09033-0.11035-1.36523,0.36816l-0.5,0.86963
		C30.35792,8.99021,30.52293,9.6015,31.00146,9.87646z"/>
	<path d="M24,8c0.55225,0,1-0.44775,1-1V6c0-0.55225-0.44775-1-1-1s-1,0.44775-1,1v1C23,7.55225,23.44775,8,24,8z"/>
	<polygon points="19,25.38184 23,27.38184 23,21.61816 19,19.61816 	"/>
	<polygon points="24,16.11816 20.23633,18 24,19.88184 27.76367,18 	"/>
	<path d="M24,10c-6.61719,0-12,5.3833-12,12c0,3.22461,1.27051,6.25781,3.58008,8.54346
		c0.7124,0.7002,1.16687,1.55328,1.33734,2.45654h14.16522c0.17059-0.90332,0.62555-1.7569,1.34021-2.45898
		C34.72949,28.25781,36,25.22461,36,22C36,15.3833,30.61719,10,24,10z M31,26c0,0.37891-0.21387,0.7251-0.55273,0.89453
		c0,0-5.99728,2.99864-6,3c-0.2646,0.1323-0.61011,0.14221-0.89453,0l-6-3C17.21387,26.7251,17,26.37891,17,26v-8
		c0-0.37891,0.21387-0.7251,0.55273-0.89453l6-3c0.28125-0.14062,0.61328-0.14062,0.89453,0l6,3C30.78613,17.2749,31,17.62109,31,18
		V26z"/>
	<polygon points="25,27.38184 29,25.38184 29,19.61816 25,21.61816 	"/>
	<path d="M31.5,35h-15c-0.82843,0-1.5,0.67157-1.5,1.5s0.67157,1.5,1.5,1.5h15c0.82843,0,1.5-0.67157,1.5-1.5S32.32843,35,31.5,35z"
		/>
	<path d="M19.03027,42.24268C19.1416,42.6875,19.54102,43,20,43h8c0.45898,0,0.8584-0.3125,0.96973-0.75732L29.7804,40H18.2196
		L19.03027,42.24268z"/>
</g>
</svg>
