<?xml version="1.0" encoding="utf-8"?>
<!-- Generator: Adobe Illustrator 28.0.0, SVG Export Plug-In . SVG Version: 6.00 Build 0)  -->
<svg version="1.1" id="Glyph" xmlns="http://www.w3.org/2000/svg" xmlns:xlink="http://www.w3.org/1999/xlink" x="0px" y="0px"
	 viewBox="0 0 48 48" enable-background="new 0 0 48 48" xml:space="preserve">
<g>
	<polygon points="30,33.41406 30,38 34.58594,38 	"/>
	<polygon points="24,20 12.92059,20 24,35.8277 	"/>
	<polygon points="36,32 31.41406,32 36,36.58594 	"/>
	<path d="M5,42c0,0.55273,0.44775,1,1,1h36c0.55273,0,1-0.44727,1-1V15H5V42z M28,19c0-0.55273,0.44727-1,1-1h8
		c0.55273,0,1,0.44727,1,1v8c0,0.55273-0.44727,1-1,1h-8c-0.55273,0-1-0.44727-1-1V19z M28,31c0-0.55273,0.44727-1,1-1h8
		c0.55273,0,1,0.44727,1,1v8c0,0.55273-0.44727,1-1,1h-8c-0.55273,0-1-0.44727-1-1V31z M10,19c0-0.55273,0.44727-1,1-1h14
		c0.55273,0,1,0.44727,1,1v20c0,0.55273-0.44727,1-1,1H11c-0.55273,0-1-0.44727-1-1V19z"/>
	<polygon points="12,22.1723 12,38 23.07941,38 	"/>
	<polygon points="36,20 31.41406,20 36,24.58594 	"/>
	<polygon points="30,21.41406 30,26 34.58594,26 	"/>
	<path d="M25.38184,5H6C5.44775,5,5,5.44727,5,6v3h18.38184L25.38184,5z"/>
	<path d="M42,5H27.61816l-2.72363,5.44727C24.7251,10.78613,24.37891,11,24,11H5v2h38V6C43,5.44727,42.55273,5,42,5z M30,10
		c-0.55231,0-1-0.44775-1-1c0-0.55231,0.44769-1,1-1s1,0.44769,1,1C31,9.55225,30.55231,10,30,10z M34,10c-0.55231,0-1-0.44775-1-1
		c0-0.55231,0.44769-1,1-1s1,0.44769,1,1C35,9.55225,34.55231,10,34,10z M38,10c-0.55231,0-1-0.44775-1-1c0-0.55231,0.44769-1,1-1
		s1,0.44769,1,1C39,9.55225,38.55231,10,38,10z"/>
</g>
</svg>
